<?xml version="1.0" standalone="no"?>
<!DOCTYPE svg PUBLIC "-//W3C//DTD SVG 20010904//EN"
 "http://www.w3.org/TR/2001/REC-SVG-20010904/DTD/svg10.dtd">
<svg version="1.0" xmlns="http://www.w3.org/2000/svg"
 width="512.000000pt" height="512.000000pt" viewBox="0 0 512.000000 512.000000"
 preserveAspectRatio="xMidYMid meet">
<metadata>
Created by potrace 1.14, written by Peter Selinger 2001-2017
</metadata>
<g transform="translate(0.000000,512.000000) scale(0.100000,-0.100000)"
fill="#000000" stroke="none">
<path d="M2538 4735 c-2 -2 -43 -5 -91 -7 -48 -2 -87 -7 -87 -12 0 -5 -6 -3
-13 3 -8 6 -17 8 -20 5 -6 -6 -20 -9 -97 -17 -14 -2 -30 -6 -35 -9 -6 -3 -31
-9 -57 -12 -77 -10 -356 -102 -370 -121 -4 -5 -8 -6 -8 -1 0 5 -6 3 -13 -3 -8
-6 -17 -8 -20 -4 -4 3 -7 1 -7 -5 0 -10 -40 -28 -49 -23 -2 2 -7 -1 -10 -6 -6
-9 -85 -57 -133 -82 -16 -7 -28 -17 -28 -22 0 -5 -6 -9 -13 -9 -7 0 -25 -11
-40 -25 -15 -14 -27 -23 -27 -20 0 10 -88 -56 -139 -103 -118 -111 -138 -131
-133 -137 3 -3 -3 -5 -13 -5 -10 0 -16 -2 -13 -5 3 -3 -11 -23 -31 -43 -21
-20 -55 -62 -76 -92 -22 -30 -42 -57 -45 -60 -12 -12 -70 -101 -70 -109 0 -5
-7 -14 -15 -21 -8 -7 -13 -16 -10 -20 3 -5 0 -12 -6 -16 -13 -8 -89 -169 -109
-229 -7 -22 -15 -44 -19 -50 -3 -5 -7 -19 -8 -30 -2 -11 -7 -21 -12 -23 -5 -2
-7 -12 -4 -22 3 -12 0 -20 -6 -20 -7 0 -10 -4 -7 -9 3 -5 -1 -32 -10 -61 -8
-28 -13 -54 -10 -57 2 -3 0 -16 -5 -30 -5 -13 -12 -48 -15 -76 -3 -29 -10 -72
-15 -97 -11 -54 -20 -129 -22 -187 -1 -24 -6 -43 -11 -43 -5 0 -3 -6 3 -14 8
-9 8 -16 2 -20 -9 -6 -7 -43 4 -73 2 -7 0 -15 -6 -19 -6 -4 -6 -11 2 -21 10
-11 10 -16 0 -23 -8 -4 -9 -10 -3 -14 5 -3 10 -23 10 -43 0 -21 3 -58 7 -83 3
-25 7 -58 9 -75 3 -26 23 -131 42 -220 3 -16 7 -39 8 -51 1 -11 5 -25 9 -31 4
-6 7 -22 6 -34 -2 -56 78 -275 143 -394 12 -22 27 -50 32 -62 6 -13 14 -23 19
-23 4 0 7 -7 7 -15 0 -8 5 -15 10 -15 6 0 10 -6 10 -13 0 -8 11 -24 25 -37 14
-13 25 -27 25 -32 0 -5 10 -19 23 -31 12 -12 34 -38 48 -57 41 -54 203 -213
274 -267 78 -60 102 -80 113 -90 7 -7 20 -13 28 -13 8 0 14 -4 14 -10 0 -5 7
-10 15 -10 8 0 15 -4 15 -10 0 -5 7 -10 15 -10 8 0 15 -3 15 -7 0 -5 10 -13
23 -19 12 -6 49 -25 82 -42 105 -54 200 -96 213 -93 6 1 12 -2 12 -6 0 -5 8
-10 18 -11 32 -3 47 -8 62 -17 8 -5 21 -10 30 -11 8 -2 35 -8 60 -14 25 -7 56
-14 69 -16 14 -3 28 -7 31 -9 11 -7 67 -15 129 -19 71 -5 93 7 97 55 4 62 14
81 40 76 14 -2 24 1 24 7 0 7 3 8 8 1 7 -11 109 -12 191 -2 24 3 40 3 37 0 -7
-8 501 -508 674 -664 103 -92 166 -111 330 -97 8 0 21 5 28 11 6 5 12 7 12 3
0 -15 68 30 104 68 39 42 79 114 70 128 -3 4 0 8 7 8 7 0 10 3 6 6 -6 6 23 44
35 44 9 0 68 53 173 155 45 44 111 108 146 141 160 153 175 183 170 324 -1 19
0 63 3 98 2 34 0 62 -4 62 -8 0 -5 77 4 115 5 19 -8 38 -71 104 -42 45 -80 80
-84 79 -4 -2 -59 -52 -121 -113 -136 -132 -151 -144 -208 -172 -76 -37 -133
-43 -224 -22 -65 15 -121 60 -325 259 -571 555 -637 619 -650 621 -3 1 -60 3
-126 4 -66 1 -149 5 -185 10 -36 4 -73 7 -82 7 -10 -1 -18 2 -18 6 0 4 -10 8
-22 9 -29 3 -58 9 -80 17 -22 7 -51 17 -58 18 -11 2 -165 82 -170 88 -3 3 -25
20 -50 37 -44 30 -140 123 -178 173 -22 29 -94 160 -87 160 2 0 -2 11 -9 25
-7 14 -12 36 -10 50 8 50 11 71 18 105 11 52 77 220 87 220 5 0 9 7 9 15 0 8
5 15 12 15 6 0 9 3 5 6 -5 6 11 32 63 98 57 73 217 206 247 206 5 0 25 9 45
19 19 11 39 17 42 14 3 -4 6 -1 6 5 0 7 3 11 8 10 4 0 14 1 22 4 99 37 140 43
290 43 145 0 238 -9 250 -24 3 -3 16 -7 30 -9 14 -1 32 -5 40 -9 8 -3 17 -7
20 -8 3 -1 18 -7 33 -13 16 -7 30 -12 32 -12 9 0 122 -69 145 -89 14 -12 40
-33 59 -48 46 -38 176 -197 169 -206 -2 -3 5 -13 14 -24 25 -27 67 -126 74
-176 4 -23 10 -46 14 -52 12 -18 3 -129 -14 -170 -36 -86 -53 -109 -138 -193
l-58 -55 5 -141 c6 -173 5 -166 22 -166 7 0 13 -4 13 -8 0 -5 16 -14 35 -22
19 -8 35 -17 35 -22 0 -4 7 -8 16 -8 8 0 34 -18 56 -41 48 -49 86 -56 125 -26
77 60 210 193 219 220 3 9 9 17 13 17 9 0 35 51 33 63 -1 4 2 7 8 7 5 0 16 14
25 30 9 17 12 30 8 30 -4 0 2 7 13 15 10 8 15 15 11 15 -5 0 -1 7 7 16 9 8 14
20 11 25 -4 5 -1 9 5 9 6 0 9 4 6 9 -4 5 -2 11 3 13 12 4 82 218 75 229 -3 5
1 12 8 14 8 3 13 18 12 35 -1 17 1 30 5 30 4 0 8 10 8 23 1 12 5 49 9 82 14
113 7 337 -12 415 -4 14 -7 35 -8 48 0 12 -4 22 -9 22 -4 0 -6 3 -5 8 2 4 -10
48 -27 97 -77 238 -242 478 -439 640 -27 22 -55 46 -62 53 -7 6 -17 12 -23 12
-5 0 -14 6 -18 14 -4 7 -26 22 -48 33 -83 42 -110 57 -115 63 -4 5 -32 19 -50
25 -3 1 -21 9 -40 17 -47 22 -74 31 -82 30 -5 -1 -8 2 -8 6 0 4 -8 8 -17 9
-10 1 -29 6 -43 11 -14 5 -28 10 -32 11 -4 1 -22 7 -40 12 -35 11 -115 26
-188 36 -25 3 -106 6 -180 6 -122 0 -159 -2 -240 -18 -14 -2 -37 -7 -52 -10
-64 -12 -82 -16 -98 -25 -9 -5 -28 -11 -41 -14 -32 -7 -86 -27 -128 -49 -19
-9 -40 -17 -47 -17 -7 0 -14 -3 -16 -7 -1 -5 -34 -24 -72 -43 -38 -19 -82 -45
-99 -57 -16 -12 -35 -20 -40 -16 -6 3 -7 1 -3 -5 4 -7 3 -12 -2 -12 -34 0
-265 -222 -353 -340 -41 -55 -110 -170 -101 -170 4 0 2 -4 -4 -8 -10 -7 -24
-35 -64 -127 -34 -77 -78 -248 -84 -323 -1 -15 -4 -32 -7 -37 -7 -13 -5 -267
3 -280 3 -6 4 -21 3 -35 -1 -14 2 -31 7 -37 6 -7 8 -13 6 -13 -3 0 1 -30 9
-67 7 -38 16 -81 19 -98 3 -16 9 -32 12 -35 8 -5 13 -25 15 -52 1 -10 5 -18 9
-18 4 0 8 -7 8 -15 0 -26 101 -228 153 -305 57 -85 250 -281 296 -301 17 -8
31 -17 31 -21 0 -5 6 -8 13 -8 7 0 23 -9 35 -21 25 -23 172 -112 172 -104 0 3
10 -1 23 -10 19 -12 171 -71 187 -72 3 -1 25 -6 50 -13 25 -7 54 -14 65 -15
11 -1 20 -3 20 -5 0 -1 11 -3 25 -5 25 -3 73 -10 138 -21 17 -3 32 -9 32 -15
0 -6 4 -7 10 -4 6 3 10 1 10 -5 0 -6 7 -18 15 -26 17 -18 20 -60 5 -69 -6 -4
-8 -10 -5 -15 3 -4 -6 -15 -20 -24 -24 -16 -25 -15 -31 8 -3 14 -13 31 -22 39
-16 15 -33 18 -152 32 -30 4 -73 12 -95 18 -22 6 -42 11 -45 12 -33 6 -102 30
-106 36 -3 5 -13 9 -23 9 -28 0 -144 51 -242 108 -20 11 -47 26 -60 34 -13 7
-26 15 -29 18 -3 3 -27 20 -53 39 -27 18 -59 43 -72 55 -13 11 -35 30 -48 41
-54 44 -125 115 -172 171 -28 32 -54 62 -60 66 -5 4 -7 8 -3 8 4 0 -3 11 -16
25 -31 33 -118 177 -146 240 -13 28 -27 58 -31 67 -5 10 -9 25 -9 33 0 8 -5
15 -12 15 -6 0 -8 3 -5 7 4 3 2 12 -4 20 -6 7 -9 13 -6 13 3 0 -1 16 -9 35 -8
19 -11 35 -8 35 4 0 2 6 -4 13 -5 6 -13 35 -16 62 -4 28 -9 57 -11 65 -18 64
-29 396 -14 406 5 2 6 11 3 19 -3 8 -2 20 2 27 5 7 9 22 9 33 1 11 4 34 8 50
4 17 9 39 11 50 2 11 9 34 16 50 6 17 12 32 12 35 3 19 63 173 82 210 51 101
71 136 88 154 9 10 15 23 12 28 -3 4 2 8 10 8 9 0 16 7 16 15 0 8 9 20 20 27
11 7 20 17 20 22 0 5 10 17 22 27 11 11 18 19 14 19 -9 0 209 215 260 255 20
17 44 33 53 36 9 4 23 14 30 23 7 9 20 16 27 16 8 0 14 4 14 9 0 5 8 12 19 16
10 3 29 14 41 25 12 11 26 17 30 15 4 -3 11 2 14 10 3 8 9 14 13 13 4 -1 18 3
29 10 12 6 24 8 28 5 3 -3 6 -2 6 3 0 10 69 40 83 36 4 -1 7 3 7 9 0 5 4 8 10
4 5 -3 18 2 29 11 18 16 47 24 99 28 12 0 22 4 22 8 0 3 8 5 18 3 9 -1 22 0
27 4 12 7 10 6 120 25 50 8 104 18 120 22 17 4 56 7 87 8 32 1 58 3 58 6 0 4
18 6 40 5 22 0 40 -4 40 -8 0 -5 5 -5 12 -1 6 4 32 6 57 4 25 -1 56 -3 69 -3
12 -1 22 -5 22 -10 0 -5 8 -3 17 4 11 10 14 10 9 2 -7 -13 -2 -14 72 -17 9 -1
19 -4 22 -8 3 -4 26 -9 50 -12 25 -4 63 -11 85 -16 22 -6 47 -13 55 -15 8 -2
17 -4 20 -5 3 -1 8 -2 13 -1 4 0 7 -3 7 -8 0 -6 9 -8 20 -6 11 2 24 -3 30 -13
5 -9 10 -14 10 -9 0 4 48 -18 108 -48 154 -79 192 -101 185 -109 -3 -3 -1 -6
6 -6 16 0 106 -60 151 -101 95 -85 198 -190 220 -222 14 -20 28 -37 33 -37 4
0 7 -5 7 -11 0 -6 12 -29 28 -52 15 -23 33 -51 40 -62 7 -11 18 -32 25 -47 6
-16 15 -28 19 -28 4 0 8 -4 8 -9 0 -5 12 -35 27 -67 15 -33 27 -61 28 -64 0
-3 6 -15 13 -27 7 -13 10 -23 7 -23 -3 0 1 -12 8 -27 14 -27 50 -156 50 -180
0 -7 3 -13 6 -13 3 0 7 -12 7 -27 1 -16 5 -59 9 -98 9 -94 12 -185 5 -185 -3
0 -5 -26 -6 -58 0 -31 -4 -75 -8 -97 -9 -53 -47 -208 -54 -220 -3 -5 -7 -20
-8 -34 -2 -13 -7 -27 -11 -30 -4 -3 -9 -10 -10 -16 -4 -22 -63 -144 -73 -150
-6 -3 -8 -10 -6 -14 3 -4 -6 -20 -20 -36 -13 -15 -24 -31 -24 -35 0 -4 -8 -16
-17 -28 -47 -54 -53 -63 -53 -71 0 -13 -149 -161 -161 -161 -6 0 -7 -5 -4 -10
3 -6 1 -10 -5 -10 -5 0 -24 -13 -42 -30 -17 -16 -35 -30 -40 -30 -5 0 -7 -4
-3 -9 3 -5 -3 -12 -14 -16 -11 -3 -22 -12 -25 -20 -3 -8 -12 -15 -20 -15 -8 0
-16 -3 -18 -7 -1 -5 -28 -25 -58 -45 -111 -76 -116 -83 -95 -147 10 -31 374
-381 396 -381 11 0 37 17 58 37 47 48 105 123 95 123 -4 0 33 39 82 88 49 48
98 100 109 116 11 16 26 35 33 43 7 7 10 13 5 13 -4 0 -1 6 7 13 17 14 60 73
60 83 0 3 9 18 19 33 11 15 21 34 23 41 2 8 9 21 16 28 6 7 12 22 12 31 0 10
7 24 15 31 9 7 14 19 11 27 -3 7 0 13 6 13 6 0 8 3 5 7 -4 3 -2 12 4 20 6 7 8
13 4 13 -4 0 -3 6 3 12 9 12 63 211 61 226 -1 4 0 9 1 12 1 3 3 16 5 30 2 14
6 43 9 65 4 22 9 58 11 80 3 22 7 49 9 60 17 73 25 371 12 465 -3 19 -8 55
-11 80 -4 25 -7 57 -7 73 0 15 -3 27 -7 27 -3 0 -7 18 -8 40 -1 22 -5 52 -8
67 -4 15 -8 37 -10 48 -1 11 -8 40 -15 65 -17 62 -21 81 -27 113 -3 15 -9 27
-14 27 -5 0 -9 14 -9 30 0 17 -5 30 -12 30 -6 0 -9 3 -5 6 7 8 -31 107 -45
115 -5 3 -9 9 -9 13 1 12 -12 41 -27 59 -8 9 -12 17 -8 17 7 0 -46 83 -56 88
-5 2 -8 8 -8 13 0 12 -108 160 -124 171 -6 4 -8 8 -3 8 8 0 3 6 -114 126 -111
114 -158 156 -233 207 -34 22 -70 49 -80 59 -11 10 -25 18 -32 18 -7 0 -18 8
-23 18 -6 9 -11 13 -11 9 0 -5 -12 0 -27 11 -39 28 -180 97 -233 115 -42 14
-98 34 -145 53 -11 4 -27 9 -35 10 -8 2 -58 14 -110 28 -52 14 -97 25 -100 25
-3 0 -25 4 -50 7 -25 4 -56 8 -70 10 -14 1 -25 3 -25 4 0 1 -38 4 -85 6 -47 2
-93 6 -102 8 -9 2 -18 2 -20 1z m89 -538 c6 -4 14 -3 18 2 3 6 15 7 28 2 12
-4 37 -7 55 -6 17 0 32 -2 32 -6 0 -3 11 -5 25 -4 14 2 25 -1 25 -7 0 -6 9 -8
20 -5 11 3 20 1 20 -5 0 -5 4 -7 9 -3 5 3 12 1 15 -4 3 -4 20 -11 37 -15 17
-3 45 -12 62 -20 18 -7 46 -18 62 -24 17 -6 39 -13 50 -18 11 -4 27 -8 35 -10
8 -2 16 -8 18 -13 2 -6 8 -11 14 -11 9 0 178 -111 204 -135 7 -5 31 -26 54
-45 60 -50 174 -168 207 -215 47 -64 123 -194 123 -208 0 -7 5 -18 12 -25 11
-11 18 -31 20 -59 1 -7 5 -13 9 -13 3 0 9 -10 12 -22 3 -13 11 -41 17 -63 30
-112 38 -176 40 -345 1 -116 -8 -201 -31 -290 -11 -41 -21 -83 -24 -92 -9 -40
-125 -258 -137 -258 -5 0 -8 -5 -8 -11 0 -17 -40 -66 -116 -143 -85 -85 -93
-90 -121 -93 -49 -5 -41 71 15 134 98 110 120 147 203 328 18 40 46 133 55
180 2 14 6 36 8 50 3 13 7 29 11 35 3 5 1 10 -6 10 -8 0 -8 4 -1 13 15 18 7
279 -11 357 -33 145 -124 366 -163 396 -7 6 -11 14 -7 17 3 4 1 7 -5 7 -7 0
-12 6 -12 13 -1 13 -38 56 -146 169 -35 37 -64 64 -64 60 0 -4 -6 0 -13 8 -29
36 -255 166 -307 176 -8 2 -47 14 -85 27 -39 14 -90 28 -115 31 -124 19 -153
23 -185 21 -19 0 -35 3 -35 8 0 4 -5 5 -11 1 -6 -4 -42 -8 -79 -9 -37 -2 -81
-6 -98 -10 -17 -3 -44 -8 -61 -10 -16 -2 -47 -9 -68 -14 -21 -6 -41 -9 -44 -8
-3 1 -13 -4 -22 -11 -9 -8 -21 -11 -27 -7 -5 3 -10 1 -10 -4 0 -6 -6 -11 -14
-11 -20 0 -100 -38 -172 -83 -34 -20 -67 -37 -73 -37 -6 0 -11 -4 -11 -10 0
-5 -6 -10 -13 -10 -7 0 -24 -11 -39 -25 -15 -14 -32 -25 -38 -25 -6 0 -8 -4
-5 -10 3 -5 1 -10 -4 -10 -30 0 -273 -290 -244 -290 4 0 3 -4 -3 -8 -5 -4 -17
-23 -26 -42 -9 -19 -26 -56 -38 -82 -12 -26 -22 -53 -24 -60 -1 -7 -4 -17 -8
-23 -15 -25 -53 -208 -51 -247 0 -10 -4 -18 -10 -18 -8 0 -8 -3 0 -11 6 -6 8
-22 4 -38 -6 -23 -6 -88 -1 -101 1 -3 4 -21 5 -40 3 -41 10 -87 25 -155 6 -27
12 -61 14 -75 2 -14 6 -32 9 -40 3 -8 15 -44 28 -80 12 -36 33 -84 46 -108 12
-23 22 -45 22 -48 -4 -21 68 -121 135 -189 81 -80 146 -137 146 -129 0 3 15
-6 33 -20 51 -39 259 -140 308 -150 50 -10 71 -15 89 -21 56 -18 194 -31 368
-34 35 -1 50 -8 88 -43 26 -24 54 -51 63 -61 8 -9 18 -17 22 -17 8 0 100 -82
148 -133 48 -51 311 -307 315 -307 1 0 49 -46 107 -103 57 -56 123 -115 144
-131 22 -17 42 -33 45 -36 20 -23 189 -88 214 -82 4 2 16 -7 26 -18 13 -16 16
-28 11 -43 -7 -19 -16 -22 -57 -21 -77 2 -184 28 -184 46 0 5 -6 8 -12 6 -16
-3 -108 51 -108 63 0 5 -5 9 -10 9 -6 0 -46 35 -90 78 -44 42 -137 131 -207
197 -70 66 -154 146 -187 177 -159 150 -212 198 -218 198 -5 0 -8 7 -8 17 0 9
-2 14 -5 11 -3 -3 -27 16 -53 42 l-47 47 -110 6 c-137 8 -225 18 -225 26 0 3
-10 7 -22 7 -42 3 -184 44 -253 73 -56 24 -120 57 -123 64 -2 4 -10 7 -18 7
-8 0 -14 5 -14 10 0 6 -7 10 -15 10 -8 0 -15 5 -15 10 0 6 -9 10 -20 10 -11 0
-20 4 -20 10 0 5 -21 24 -47 42 -71 48 -193 157 -193 172 0 4 -6 13 -12 20
-35 36 -68 77 -68 84 0 5 -8 17 -18 28 -44 48 -135 226 -146 287 -2 15 -7 31
-11 37 -7 12 -10 25 -31 145 -15 86 -16 319 -1 385 3 14 8 39 11 55 7 42 22
95 35 128 6 15 8 27 5 27 -3 0 -2 6 3 13 4 6 8 14 9 17 6 34 18 59 25 54 5 -3
6 1 3 9 -3 8 1 21 8 28 7 8 14 21 16 29 6 26 63 120 73 120 6 0 8 4 4 9 -3 6
10 26 30 45 19 20 35 38 35 41 -1 22 1 28 6 22 3 -3 35 23 71 59 36 35 70 64
76 64 5 0 8 3 5 6 -8 7 28 44 43 44 5 0 7 5 4 10 -3 6 -2 10 3 10 5 0 18 8 30
18 11 9 31 26 44 37 12 11 27 20 31 20 4 0 11 5 15 10 4 6 19 16 35 24 15 8
27 18 27 23 0 4 6 8 13 8 7 0 18 5 25 12 6 6 22 13 34 15 13 2 25 8 26 13 2 6
7 8 12 5 5 -3 14 1 22 8 7 7 18 15 23 16 6 2 26 10 45 18 85 36 220 73 220 59
0 -7 3 -7 8 -1 8 12 26 17 64 20 15 1 30 3 32 6 8 7 221 4 233 -4z"/>
<path d="M2457 3234 c-72 -14 -159 -52 -204 -89 -30 -26 -90 -125 -99 -166 -2
-10 -6 -29 -9 -41 -7 -32 -9 -108 -2 -114 3 -4 2 -17 -3 -30 -5 -13 -6 -24 -2
-24 4 0 7 -48 7 -106 0 -58 3 -108 7 -110 5 -3 6 -9 3 -14 -3 -4 2 -20 10 -36
7 -15 12 -31 9 -36 -3 -4 -2 -8 3 -8 4 0 14 -13 21 -29 20 -45 70 -89 140
-122 69 -33 90 -40 143 -44 20 -1 42 -6 49 -10 7 -4 16 -2 20 5 4 7 10 8 13 3
7 -12 95 0 125 16 11 6 22 8 24 5 3 -2 11 2 18 11 7 8 18 15 24 15 6 0 25 12
41 28 16 15 32 26 36 25 3 -1 16 18 28 43 12 24 27 44 32 44 5 0 8 3 7 8 -1 4
4 21 11 37 7 17 15 39 17 50 2 11 6 32 9 47 4 14 6 98 7 185 0 134 -3 168 -21
223 -55 172 -255 272 -464 234z m8 -317 c-15 -43 -11 -76 10 -103 19 -23 30
-28 69 -28 42 -1 51 3 69 29 12 16 23 43 24 60 0 16 2 35 2 41 1 16 31 13 31
-3 0 -8 5 -11 10 -8 6 3 10 -3 10 -14 0 -11 4 -22 10 -26 9 -6 8 -13 -6 -50
-4 -11 -8 -24 -8 -28 -1 -12 -78 -57 -88 -51 -4 3 -8 1 -8 -4 0 -5 -24 -8 -54
-7 -120 6 -212 132 -141 193 14 12 30 22 35 22 6 0 10 6 10 13 1 7 6 4 15 -6
7 -11 12 -24 10 -30z"/>
</g>
</svg>
